<svg width="512" height="189" xmlns="http://www.w3.org/2000/svg"><defs><linearGradient x2="1" id="a"><stop offset=".202" stop-opacity="0"/><stop offset="1" stop-color="#666"/></linearGradient></defs><title>Layer 1</title><path stroke="#000" stroke-linecap="null" stroke-linejoin="null" stroke-dasharray="null" stroke-width="2" fill="none" d="M190.833 83.544L482.186 0l30.294 105.65-291.352 83.543z"/><path d="M473.826 59.225l-42.137-39.82 18.65-5.37 42.138 39.82-14.505 56.13-18.652 5.372 14.506-56.132z" fill="#af2121"/><path opacity=".25" fill="#ce7373" d="M247.236 176.414l-18.71 5.387-27.63-95.95 18.707-5.388z"/><path fill="#ce7373" d="M392.872 30.534l19.027-5.48 27.632 95.952-19.027 5.48z"/><path opacity=".85" fill="#ce7373" d="M354.62 41.73l19.028-5.48 27.633 95.95-19.026 5.48z"/><path opacity=".7" fill="#ce7373" d="M315.918 52.538l19.345-5.57 27.724 96.268-19.345 5.57z"/><path opacity=".55" fill="#ce7373" d="M277.855 63.845l19.027-5.48 27.632 95.952-19.026 5.48z"/><path opacity=".4" fill="#ce7373" d="M239.24 74.966l19.028-5.48L285.9 165.44l-19.026 5.48z"/><path fill-opacity=".85" fill="url(#a)" d="M8.5 128.667h173.333v8.667H8.5zM126.5 18.667h173.333v8.667H126.5zM0 55.167h173.333v8.667H0z"/></svg>